<?xml version="1.0" encoding="UTF-8" standalone="no"?>
<!-- Created with Inkscape (http://www.inkscape.org/) -->

<svg
   xmlns:dc="http://purl.org/dc/elements/1.1/"
   xmlns:cc="http://creativecommons.org/ns#"
   xmlns:rdf="http://www.w3.org/1999/02/22-rdf-syntax-ns#"
   xmlns:svg="http://www.w3.org/2000/svg"
   xmlns="http://www.w3.org/2000/svg"
   xmlns:sodipodi="http://sodipodi.sourceforge.net/DTD/sodipodi-0.dtd"
   xmlns:inkscape="http://www.inkscape.org/namespaces/inkscape"
   width="141.11113mm"
   height="141.11107mm"
   viewBox="0 0 500.00007 499.99985"
   id="svg2"
   version="1.1"
   inkscape:version="0.91 r13725"
   sodipodi:docname="butterfly.old.svg">
  <defs
     id="defs4">
    <filter
       inkscape:collect="always"
       style="color-interpolation-filters:sRGB"
       id="filter4305"
       x="-0.059997067"
       width="1.119994"
       y="-0.060002934"
       height="1.1200058">
      <feGaussianBlur
         inkscape:collect="always"
         stdDeviation="12.499388"
         id="feGaussianBlur4307" />
    </filter>
  </defs>
  <sodipodi:namedview
     id="base"
     pagecolor="#ffffff"
     bordercolor="#666666"
     borderopacity="1.0"
     inkscape:pageopacity="0.0"
     inkscape:pageshadow="2"
     inkscape:zoom="0.52643472"
     inkscape:cx="372.04724"
     inkscape:cy="49.801592"
     inkscape:document-units="px"
     inkscape:current-layer="layer1"
     showgrid="false"
     fit-margin-top="0"
     fit-margin-left="0"
     fit-margin-right="0"
     fit-margin-bottom="0"
     inkscape:window-width="1366"
     inkscape:window-height="740"
     inkscape:window-x="0"
     inkscape:window-y="0"
     inkscape:window-maximized="1" />
  <metadata
     id="metadata7">
    <rdf:RDF>
      <cc:Work
         rdf:about="">
        <dc:format>image/svg+xml</dc:format>
        <dc:type
           rdf:resource="http://purl.org/dc/dcmitype/StillImage" />
        <dc:title></dc:title>
      </cc:Work>
    </rdf:RDF>
  </metadata>
  <g
     inkscape:label="Layer 1"
     inkscape:groupmode="layer"
     id="layer1">
    <g
       transform="matrix(0.89286205,0,0,0.89293961,26.784552,26.786877)"
       id="g4319"
       inkscape:export-xdpi="90"
       inkscape:export-ydpi="90">
      <path
         sodipodi:nodetypes="zcszszzzsszzzscszzzsszzzszsczczccc"
         inkscape:connector-curvature="0"
         id="path4233-3-5"
         d="m 306.60828,381.09858 c 19.51033,35.89683 45.56402,64.3774 88.38022,60.32377 27.32087,-1.74594 18.88461,-35.14966 57.5685,24.02698 19.38656,29.65658 38.54277,37.98347 45.07102,33.26838 6.52828,-4.71508 0.54431,-22.352 -30.08914,-44.80177 -61.40861,-45.00337 -32.29811,-38.48689 -28.6864,-64.80587 3.61165,-26.31894 1.50368,-31.3908 -1.20046,-52.38656 -2.70414,-20.99577 -13.15164,-45.96197 -17.96158,-60.10327 -4.81,-14.14128 -1.91153,-25.95714 -8.00531,-26.851 -32.528,-4.77136 -21.76308,-8.39691 1.01378,-7.85586 21.81984,0.51831 24.83242,-19.60764 26.84811,-55.90973 2.0157,-36.3021 19.856,-75.49582 34.30145,-99.237123 C 488.29388,63.025222 512.00416,27.607362 487.00619,7.6551917 462.00819,-12.297008 394.7485,6.9115217 334.02022,63.420882 300.42276,94.684261 271.51236,135.83772 250,169.68315 228.48765,135.83775 199.57724,94.684296 165.97978,63.420922 105.25149,6.9115617 37.991819,-12.296978 12.993809,7.6552317 c -24.99797,19.9521703 -1.28769,55.3700303 13.15772,79.1113303 14.44545,23.741298 32.28575,62.935018 34.30146,99.237118 2.01568,36.3021 5.02826,56.42805 26.84811,55.90974 22.776851,-0.54105 33.541771,3.0845 1.01378,7.85586 -6.09379,0.89386 -3.19532,12.70972 -8.00532,26.851 -4.80994,14.1413 -15.25743,39.1075 -17.96158,60.10327 -2.70414,20.99576 -4.81211,26.06762 -1.20045,52.38656 3.6117,26.31898 32.7222,19.8025 -28.6864,64.80587 -30.6334502,22.44977 -36.6174302,40.08669 -30.0891502,44.80177 6.52825,4.71509 25.6844702,-3.6118 45.0710202,-33.26838 38.68389,-59.17664 30.24764,-25.77292 57.568501,-24.02698 42.81619,4.05363 68.86989,-24.42694 88.38023,-60.32377 19.51036,-35.89687 33.53216,-56.41937 56.60827,-82.69202 23.07611,26.27261 37.09792,46.79511 56.60828,82.69198 z m 177.585,112.19088 c 0.81461,0 3.03397,-1.85666 4.93191,-4.12586 l -1.1e-4,0"
         style="fill:#151515;fill-opacity:0.89019608;filter:url(#filter4305)" />
      <path
         sodipodi:nodetypes="zcszszzzsszzzscszzzsszzzszsczczccc"
         inkscape:connector-curvature="0"
         id="path4233-3"
         d="m 306.60828,381.14754 c 19.51033,35.89683 45.56402,64.3774 88.38022,60.32377 27.32087,-1.74594 18.88461,-35.14966 57.5685,24.02698 19.38656,29.65658 38.54277,37.98347 45.07102,33.26838 6.52828,-4.71508 0.54431,-22.352 -30.08914,-44.80177 -61.40861,-45.00337 -32.29811,-38.48689 -28.6864,-64.80587 3.61165,-26.31894 1.50368,-31.3908 -1.20046,-52.38656 -2.70414,-20.99577 -13.15164,-45.96197 -17.96158,-60.10327 -4.81,-14.14128 -1.91153,-25.95714 -8.00531,-26.851 -32.528,-4.77136 -21.76308,-8.39691 1.01378,-7.85586 21.81984,0.51831 24.83242,-19.60764 26.84811,-55.90973 2.0157,-36.3021 19.856,-75.49582 34.30145,-99.237129 C 488.29388,63.07418 512.00416,27.65632 487.00619,7.7041491 462.00819,-12.24805 394.7485,6.9604794 334.02022,63.46984 300.42276,94.733215 271.51236,135.88668 250,169.73211 228.48765,135.88671 199.57724,94.73325 165.97978,63.469875 105.25149,6.9605135 37.991812,-12.24802 12.99381,7.7041837 -12.004162,27.656355 11.706116,63.074215 26.151531,86.815516 40.596977,110.55682 58.43728,149.75054 60.452982,186.05264 c 2.015683,36.3021 5.028268,56.42805 26.848111,55.90974 22.776857,-0.54105 33.541777,3.0845 1.013781,7.85586 -6.093783,0.89386 -3.195317,12.70972 -8.005316,26.851 -4.809939,14.1413 -15.257436,39.1075 -17.961581,60.10327 -2.704136,20.99576 -4.812109,26.06762 -1.200453,52.38656 3.611706,26.31898 32.722206,19.8025 -28.686401,64.80587 -30.6334497,22.44977 -36.6174237,40.08669 -30.089143,44.80177 6.5282507,4.71509 25.684465,-3.6118 45.071016,-33.26838 38.683892,-59.17664 30.247638,-25.77292 57.568504,-24.02698 42.81619,4.05363 68.86989,-24.42694 88.38023,-60.32377 19.51036,-35.89687 33.53216,-56.41937 56.60827,-82.69202 23.07611,26.27261 37.09792,46.79511 56.60828,82.69198 z m 177.585,112.19088 c 0.81461,0 3.03397,-1.85666 4.93191,-4.12586 l -1.1e-4,0"
         style="fill:#151515;fill-opacity:1" />
      <path
         sodipodi:nodetypes="ccc"
         inkscape:connector-curvature="0"
         id="path4233-3-7"
         d="M 4.931917,4.1748235 C 4.1173068,4.1748235 1.8979441,2.3181653 0,0.04895755 l 1.0998923e-4,0"
         style="fill:#000000;fill-opacity:1" />
    </g>
  </g>
</svg>
