<?xml version="1.0" encoding="UTF-8" standalone="no"?>
<!-- Created with Inkscape (http://www.inkscape.org/) -->

<svg
   xmlns:dc="http://purl.org/dc/elements/1.1/"
   xmlns:cc="http://creativecommons.org/ns#"
   xmlns:rdf="http://www.w3.org/1999/02/22-rdf-syntax-ns#"
   xmlns:svg="http://www.w3.org/2000/svg"
   xmlns="http://www.w3.org/2000/svg"
   xmlns:sodipodi="http://sodipodi.sourceforge.net/DTD/sodipodi-0.dtd"
   xmlns:inkscape="http://www.inkscape.org/namespaces/inkscape"
   width="225.77779mm"
   height="225.77779mm"
   viewBox="0 0 800.00004 800.00003"
   id="svg2"
   version="1.1"
   inkscape:version="0.91 r13725"
   sodipodi:docname="isotipo-white.svg">
  <defs
     id="defs4">
    <filter
       inkscape:collect="always"
       style="color-interpolation-filters:sRGB"
       id="filter4176"
       x="-0.30000001"
       width="1.6"
       y="-0.30000001"
       height="1.6">
      <feGaussianBlur
         inkscape:collect="always"
         stdDeviation="62.5"
         id="feGaussianBlur4178" />
    </filter>
  </defs>
  <sodipodi:namedview
     id="base"
     pagecolor="#ffffff"
     bordercolor="#666666"
     borderopacity="1.0"
     inkscape:pageopacity="0.0"
     inkscape:pageshadow="2"
     inkscape:zoom="0.52643472"
     inkscape:cx="215.26654"
     inkscape:cy="199.80168"
     inkscape:document-units="px"
     inkscape:current-layer="layer1"
     showgrid="false"
     fit-margin-top="0"
     fit-margin-left="0"
     fit-margin-right="0"
     fit-margin-bottom="0"
     inkscape:window-width="1366"
     inkscape:window-height="740"
     inkscape:window-x="0"
     inkscape:window-y="0"
     inkscape:window-maximized="1" />
  <metadata
     id="metadata7">
    <rdf:RDF>
      <cc:Work
         rdf:about="">
        <dc:format>image/svg+xml</dc:format>
        <dc:type
           rdf:resource="http://purl.org/dc/dcmitype/StillImage" />
        <dc:title></dc:title>
      </cc:Work>
    </rdf:RDF>
  </metadata>
  <g
     inkscape:label="Layer 1"
     inkscape:groupmode="layer"
     id="layer1"
     transform="translate(149.99997,150.00008)">
    <path
       style="opacity:0.5;fill:#000000;fill-opacity:1;stroke:none;filter:url(#filter4176)"
       d="m 306.60831,381.1358 c 19.51033,35.90034 45.56402,64.38369 88.38022,60.32967 27.32087,-1.74611 18.88462,-35.1531 57.5685,24.02933 19.38656,29.65948 38.54277,37.98718 45.07102,33.27163 6.52828,-4.71554 0.54431,-22.35418 -30.08915,-44.80614 -61.4086,-45.00778 -32.2981,-38.49066 -28.68639,-64.81222 3.61165,-26.32151 1.50368,-31.39387 -1.20046,-52.39168 -2.70414,-20.99783 -13.15164,-45.96647 -17.96158,-60.10916 -4.81,-14.14265 -1.91153,-25.95967 -8.00531,-26.85363 -32.528,-4.77182 -21.76308,-8.39772 1.01378,-7.85663 21.81984,0.51837 24.83242,-19.60954 26.84812,-55.91519 2.01569,-36.30565 19.85599,-75.50321 34.30144,-99.24684 C 488.29391,63.03131 512.00419,27.60999 487.00622,7.6558631 462.00822,-12.298288 394.74853,6.9121201 334.02025,63.42701 300.42279,94.69345 271.51239,135.85094 250.00003,169.69968 228.48768,135.85097 199.57728,94.69348 165.97981,63.42705 105.25152,6.9121541 37.991845,-12.298257 12.993843,7.6558981 -12.004129,27.61002 11.706149,63.03135 26.151564,86.77497 c 14.445446,23.74363 32.28575,62.94119 34.30145,99.24684 2.01568,36.30565 5.02827,56.43357 26.84811,55.91521 22.776866,-0.5411 33.541776,3.0848 1.01378,7.85663 -6.09378,0.89394 -3.19532,12.71096 -8.00531,26.85363 -4.80994,14.14268 -15.25744,39.11133 -17.96158,60.10915 -2.70414,20.99781 -4.81211,26.07017 -1.20046,52.39169 3.61171,26.32154 32.72221,19.80443 -28.686398,64.8122 -30.6334504,22.45197 -36.6174244,40.09062 -30.0891434,44.80616 6.52825,4.71555 25.6844654,-3.61216 45.0710164,-33.27164 38.683895,-59.18243 30.247645,-25.77544 57.568511,-24.02933 42.81619,4.05403 68.86989,-24.42933 88.38022,-60.32967 19.51036,-35.90039 33.53216,-56.42489 56.60827,-82.70011 23.07611,26.27518 37.09792,46.79969 56.60828,82.70007 z m 177.585,112.20185 c 0.81461,0 3.03397,-1.85683 4.93191,-4.12626 l -1.1e-4,0"
       id="path4233-3-6"
       inkscape:connector-curvature="0"
       sodipodi:nodetypes="zcszszzzsszzzscszzzsszzzszsczczccc" />
    <path
       style="fill:#ffffff;fill-opacity:1"
       d="m 306.60831,381.1358 c 19.51033,35.90034 45.56402,64.38369 88.38022,60.32967 27.32087,-1.74611 18.88462,-35.1531 57.5685,24.02933 19.38656,29.65948 38.54277,37.98718 45.07102,33.27163 6.52828,-4.71554 0.54431,-22.35418 -30.08915,-44.80614 -61.4086,-45.00778 -32.2981,-38.49066 -28.68639,-64.81222 3.61165,-26.32151 1.50368,-31.39387 -1.20046,-52.39168 -2.70414,-20.99783 -13.15164,-45.96647 -17.96158,-60.10916 -4.81,-14.14265 -1.91153,-25.95967 -8.00531,-26.85363 -32.528,-4.77182 -21.76308,-8.39772 1.01378,-7.85663 21.81984,0.51837 24.83242,-19.60954 26.84812,-55.91519 2.01569,-36.30565 19.85599,-75.50321 34.30144,-99.246841 C 488.29391,63.031314 512.00419,27.609989 487.00622,7.6558653 462.00822,-12.298287 394.74853,6.9121223 334.02025,63.427012 300.42279,94.69345 271.51239,135.85094 250.00003,169.69968 228.48768,135.85097 199.57728,94.693483 165.97981,63.427047 105.25152,6.9121563 37.991846,-12.298256 12.993844,7.6559003 -12.004128,27.610023 11.70615,63.031349 26.151565,86.774972 c 14.445446,23.743628 32.285749,62.941188 34.30145,99.246838 2.015683,36.30565 5.028269,56.43357 26.848107,55.91521 22.776868,-0.5411 33.541778,3.0848 1.01378,7.85663 -6.09378,0.89394 -3.19532,12.71096 -8.00531,26.85363 -4.80994,14.14268 -15.257436,39.11133 -17.961581,60.10915 -2.704136,20.99781 -4.812109,26.07017 -1.200453,52.39169 3.611706,26.32154 32.722204,19.80443 -28.686401,64.8122 -30.6334499,22.45197 -36.6174239,40.09062 -30.0891429,44.80616 6.52825,4.71555 25.6844649,-3.61216 45.0710159,-33.27164 38.683892,-59.18243 30.247642,-25.77544 57.56851,-24.02933 42.81619,4.05403 68.86989,-24.42933 88.38022,-60.32967 19.51036,-35.90039 33.53216,-56.42489 56.60827,-82.70011 23.07611,26.27518 37.09792,46.79969 56.60828,82.70007 z m 177.585,112.20185 c 0.81461,0 3.03397,-1.85683 4.93191,-4.12626 l -1.1e-4,0"
       id="path4233-3"
       inkscape:connector-curvature="0"
       sodipodi:nodetypes="zcszszzzsszzzscszzzsszzzszsczczccc" />
  </g>
</svg>
