<?xml version="1.0" encoding="UTF-8" standalone="no"?>
<svg
   xmlns:dc="http://purl.org/dc/elements/1.1/"
   xmlns:cc="http://creativecommons.org/ns#"
   xmlns:rdf="http://www.w3.org/1999/02/22-rdf-syntax-ns#"
   xmlns:svg="http://www.w3.org/2000/svg"
   xmlns="http://www.w3.org/2000/svg"
   xmlns:sodipodi="http://sodipodi.sourceforge.net/DTD/sodipodi-0.dtd"
   xmlns:inkscape="http://www.inkscape.org/namespaces/inkscape"
   width="1600"
   height="1600"
   id="svg4210"
   version="1.1"
   inkscape:version="0.91 r13725"
   sodipodi:docname="imagotipo 2.svg">
  <defs
     id="defs4228">
    <clipPath
       clipPathUnits="userSpaceOnUse"
       id="clipPath5942">
      <g
         id="g5944">
        <path
           d="m 207.10356,597.17222 9.5,-4.15625 11.6375,6.29375 q 9.14375,4.86875 11.51875,9.61875 2.49375,4.63125 0.35625,13.18125 -0.95,3.8 -3.0875,5.225 -2.01875,1.425 -3.325,-0.35625 -1.30625,-1.9 -0.59375,-5.81875 0.7125,-3.5625 -0.11875,-6.05625 -0.7125,-2.49375 -3.325,-4.86875 -3.68125,-3.20625 -5.225,-3.0875 -1.425,0 -6.175,3.5625 -7.48125,5.34375 -10.925,14.25 -3.325,8.7875 -3.5625,22.91875 0,10.80625 0.83125,14.36875 0.83125,3.44375 3.68125,4.9875 6.175,3.325 13.5375,2.25625 7.48125,-1.1875 12.70625,-6.175 2.73125,-2.49375 4.86875,-3.91875 2.25625,-1.54375 2.85,-0.95 1.1875,1.06875 -1.425,4.63125 -2.6125,3.5625 -7.48125,7.48125 -4.75,3.8 -9.2625,5.9375 -20.9,10.33125 -38.7125,-2.49375 l -9.7375,-7.24375 0.475,-14.36875 q 0.475,-14.9625 2.73125,-22.44375 2.375,-8.55 11.04375,-18.7625 8.7875,-10.2125 17.21875,-14.0125 z"
           style="font-style:normal;font-variant:normal;font-weight:500;font-stretch:normal;font-size:118.75px;line-height:125%;font-family:'Academy Killer';-inkscape-font-specification:'Academy Killer Medium';letter-spacing:0px;word-spacing:0px;fill:#ffffff;fill-opacity:1;stroke:#fafafa;stroke-width:1px;stroke-linecap:butt;stroke-linejoin:miter;stroke-opacity:1"
           id="path5946"
           inkscape:connector-curvature="0" />
        <path
           d="m 272.08658,599.36549 q 6.4125,-2.96875 10.80625,-3.8 4.5125,-0.83125 9.38125,0.11875 6.53125,1.1875 12.23125,6.29375 5.7,4.9875 6.175,9.975 0.11875,0.35625 0.475,4.0375 0.475,3.68125 0.7125,5.7 0.2375,2.85 -1.425,10.80625 -1.6625,7.95625 -4.15625,16.03125 -2.01875,6.4125 -3.20625,9.61875 -1.06875,3.20625 -2.375,6.05625 -1.1875,2.85 -2.6125,4.275 -1.30625,1.425 -2.85,2.49375 -1.54375,1.06875 -4.275,2.49375 -3.8,1.9 -9.61875,3.44375 -5.81875,1.54375 -10.2125,1.9 -7.24375,0.475 -9.975,-0.7125 -2.73125,-1.1875 -7.48125,-7.00625 -12.35,-15.08125 -7.24375,-41.20625 2.49375,-11.875 8.075,-18.525 5.58125,-6.76875 17.575,-11.99375 z m 25.4125,9.38125 q -9.5,-3.68125 -14.60625,3.0875 -4.9875,6.76875 -4.9875,23.15625 0,8.7875 1.06875,12.70625 1.06875,3.8 4.75,7.8375 l 5.81875,6.53125 4.39375,-5.34375 q 4.63125,-5.4625 7.00625,-16.3875 2.375,-11.04375 1.425,-20.54375 -0.83125,-9.5 -4.86875,-11.04375 z"
           style="font-style:normal;font-variant:normal;font-weight:500;font-stretch:normal;font-size:118.75px;line-height:125%;font-family:'Academy Killer';-inkscape-font-specification:'Academy Killer Medium';letter-spacing:0px;word-spacing:0px;fill:#ffffff;fill-opacity:1;stroke:#fafafa;stroke-width:1px;stroke-linecap:butt;stroke-linejoin:miter;stroke-opacity:1"
           id="path5948"
           inkscape:connector-curvature="0" />
        <path
           d="m 328.44677,597.53051 q 5.9375,-2.96875 8.43125,-2.6125 2.49375,0.2375 7.125,4.63125 4.75,4.39375 5.10625,9.7375 0.35625,5.225 -3.44375,14.4875 -3.0875,7.3625 -3.44375,23.0375 -0.2375,15.675 2.49375,18.40625 0.95,0.95 3.20625,0.475 2.25625,-0.59375 4.9875,-2.25625 2.96875,-2.01875 7.125,-2.85 4.275,-0.83125 7.3625,0 3.0875,0.7125 3.20625,2.6125 0,0.83125 -1.30625,2.25625 -1.1875,1.30625 -2.85,2.375 -3.8,1.9 -10.6875,6.53125 -7.00625,4.63125 -18.16875,4.86875 -11.04375,0.2375 -15.9125,-4.15625 -5.4625,-4.9875 -6.8875,-13.41875 -1.30625,-8.43125 0.35625,-27.3125 1.1875,-13.18125 2.6125,-20.06875 1.54375,-7.00625 3.91875,-10.80625 2.49375,-3.8 6.76875,-5.9375 z"
           style="font-style:normal;font-variant:normal;font-weight:500;font-stretch:normal;font-size:118.75px;line-height:125%;font-family:'Academy Killer';-inkscape-font-specification:'Academy Killer Medium';letter-spacing:0px;word-spacing:0px;fill:#ffffff;fill-opacity:1;stroke:#fafafa;stroke-width:1px;stroke-linecap:butt;stroke-linejoin:miter;stroke-opacity:1"
           id="path5950"
           inkscape:connector-curvature="0" />
        <path
           d="m 400.06495,599.36549 q 6.4125,-2.96875 10.80625,-3.8 4.5125,-0.83125 9.38125,0.11875 6.53125,1.1875 12.23125,6.29375 5.7,4.9875 6.175,9.975 0.11875,0.35625 0.475,4.0375 0.475,3.68125 0.7125,5.7 0.2375,2.85 -1.425,10.80625 -1.6625,7.95625 -4.15625,16.03125 -2.01875,6.4125 -3.20625,9.61875 -1.06875,3.20625 -2.375,6.05625 -1.1875,2.85 -2.6125,4.275 -1.30625,1.425 -2.85,2.49375 -1.54375,1.06875 -4.275,2.49375 -3.8,1.9 -9.61875,3.44375 -5.81875,1.54375 -10.2125,1.9 -7.24375,0.475 -9.975,-0.7125 -2.73125,-1.1875 -7.48125,-7.00625 -12.35,-15.08125 -7.24375,-41.20625 2.49375,-11.875 8.075,-18.525 5.58125,-6.76875 17.575,-11.99375 z m 25.4125,9.38125 q -9.5,-3.68125 -14.60625,3.0875 -4.9875,6.76875 -4.9875,23.15625 0,8.7875 1.06875,12.70625 1.06875,3.8 4.75,7.8375 l 5.81875,6.53125 4.39375,-5.34375 q 4.63125,-5.4625 7.00625,-16.3875 2.375,-11.04375 1.425,-20.54375 -0.83125,-9.5 -4.86875,-11.04375 z"
           style="font-style:normal;font-variant:normal;font-weight:500;font-stretch:normal;font-size:118.75px;line-height:125%;font-family:'Academy Killer';-inkscape-font-specification:'Academy Killer Medium';letter-spacing:0px;word-spacing:0px;fill:#ffffff;fill-opacity:1;stroke:#fafafa;stroke-width:1px;stroke-linecap:butt;stroke-linejoin:miter;stroke-opacity:1"
           id="path5952"
           inkscape:connector-curvature="0" />
        <path
           d="m 460.92695,597.8593 q 12.94375,-6.05625 22.20625,-5.7 9.38125,0.2375 17.575,7.125 6.29375,5.225 8.19375,11.28125 1.9,6.05625 -1.06875,11.4 -2.96875,5.34375 -10.09375,8.55 l -8.90625,3.91875 7.95625,7.95625 q 5.225,5.225 9.14375,11.4 3.91875,6.05625 5.58125,11.4 1.78125,5.34375 1.30625,9.5 -0.475,4.15625 -3.44375,5.81875 -5.10625,2.6125 -7.24375,0.59375 -2.1375,-2.01875 -2.1375,-9.38125 0,-9.85625 -8.7875,-21.375 -7.24375,-9.61875 -13.89375,-11.6375 -4.275,-1.30625 -6.4125,2.01875 -1.1875,2.01875 -1.54375,16.98125 0,14.4875 -3.8,18.64375 -2.96875,3.44375 -8.66875,3.91875 -5.58125,0.475 -10.925,-2.25625 -3.20625,-1.78125 -3.68125,-6.53125 -0.35625,-4.75 0.7125,-26.6 0.7125,-12.1125 1.78125,-22.8 1.1875,-10.80625 1.9,-13.3 0.83125,-2.375 4.75,-5.225 3.91875,-2.96875 9.5,-5.7 z m 33.9625,15.55625 q -0.59375,-6.53125 -3.20625,-8.66875 -2.6125,-2.25625 -6.29375,0.475 -3.68125,2.6125 -7.24375,9.38125 -5.4625,10.6875 -2.73125,13.5375 2.73125,2.85 13.18125,-2.6125 4.63125,-2.25625 5.7,-4.39375 1.1875,-2.1375 0.59375,-7.71875 z M 455.3457,611.8718 q 0.7125,-1.6625 0.95,-2.96875 0.35625,-1.30625 0.2375,-2.01875 -0.11875,-0.83125 -0.7125,-0.83125 -1.6625,0 -3.5625,4.75 -1.9,4.75 -0.7125,5.9375 0.59375,0.35625 1.6625,-1.06875 1.06875,-1.425 2.1375,-3.8 z m 2.1375,29.56875 q 0.475,-1.30625 0.35625,-2.6125 -0.11875,-1.30625 -0.59375,-1.9 -0.83125,-0.95 -1.1875,0.83125 -0.11875,0.95 0,2.25625 0,2.6125 0.7125,2.375 0.35625,0 0.7125,-0.95 z"
           style="font-style:normal;font-variant:normal;font-weight:500;font-stretch:normal;font-size:118.75px;line-height:125%;font-family:'Academy Killer';-inkscape-font-specification:'Academy Killer Medium';letter-spacing:0px;word-spacing:0px;fill:#ffffff;fill-opacity:1;stroke:#fafafa;stroke-width:1px;stroke-linecap:butt;stroke-linejoin:miter;stroke-opacity:1"
           id="path5954"
           inkscape:connector-curvature="0" />
        <path
           d="m 529.4098,593.96519 q 3.91875,-2.85 11.4,-2.85 7.6,0 14.60625,2.1375 7.125,2.01875 12.35,5.81875 5.34375,3.8 5.34375,7.95625 0,3.325 -2.01875,5.10625 -1.9,1.6625 -4.63125,1.06875 -2.6125,-0.7125 -4.5125,-3.68125 -3.0875,-4.86875 -7.6,-4.86875 -4.39375,0 -6.76875,4.63125 -2.96875,5.7 -0.475,12.35 2.49375,6.65 11.1625,15.9125 7.48125,7.95625 9.2625,15.4375 1.78125,7.3625 -2.01875,13.3 -3.68125,5.81875 -12.94375,10.09375 -9.14375,4.275 -22.91875,6.05625 -10.6875,1.54375 -13.775,-1.06875 -1.9,-1.6625 1.9,-4.0375 2.375,-1.425 4.39375,-1.78125 2.1375,-0.475 8.55,-0.83125 3.325,-0.35625 4.275,-2.01875 0.95,-1.6625 0.95,-7.24375 0,-8.7875 -5.7,-16.98125 -5.4625,-7.95625 -9.2625,-17.1 -3.68125,-9.14375 -3.68125,-14.60625 0,-5.58125 3.68125,-12.35 3.68125,-6.8875 8.43125,-10.45 z"
           style="font-style:normal;font-variant:normal;font-weight:500;font-stretch:normal;font-size:118.75px;line-height:125%;font-family:'Academy Killer';-inkscape-font-specification:'Academy Killer Medium';letter-spacing:0px;word-spacing:0px;fill:#ffffff;fill-opacity:1;stroke:#fafafa;stroke-width:1px;stroke-linecap:butt;stroke-linejoin:miter;stroke-opacity:1"
           id="path5956"
           inkscape:connector-curvature="0" />
      </g>
    </clipPath>
  </defs>
  <sodipodi:namedview
     pagecolor="#ffffff"
     bordercolor="#666666"
     borderopacity="1"
     objecttolerance="10"
     gridtolerance="10"
     guidetolerance="10"
     inkscape:pageopacity="0"
     inkscape:pageshadow="2"
     inkscape:window-width="1366"
     inkscape:window-height="680"
     id="namedview4226"
     showgrid="false"
     inkscape:zoom="0.25520834"
     inkscape:cx="246.01233"
     inkscape:cy="694.80307"
     inkscape:window-x="0"
     inkscape:window-y="27"
     inkscape:window-maximized="1"
     inkscape:current-layer="svg4210"
     fit-margin-top="0"
     fit-margin-left="0"
     fit-margin-right="0"
     fit-margin-bottom="0" />
  <title
     id="title4212">ink splash with drops</title>
  <metadata
     id="metadata7">image/svg+xmlink splash with dropsSergio Luiz Araujo Silvadropsplashink<rdf:RDF>
  <cc:Work
     rdf:about="">
    <dc:format>image/svg+xml</dc:format>
    <dc:type
       rdf:resource="http://purl.org/dc/dcmitype/StillImage" />
    <dc:title>ink splash with drops</dc:title>
  </cc:Work>
</rdf:RDF>
</metadata>
  <g
     id="g4217"
     inkscape:export-xdpi="90"
     inkscape:export-ydpi="90">
    <g
       inkscape:export-ydpi="90"
       inkscape:export-xdpi="90"
       id="g4222">
      <g
         id="g4493"
         transform="matrix(0,-1.9999998,1.9999998,0,6.2175489e-5,2719.9999)">
        <path
           inkscape:connector-curvature="0"
           style="fill:#00ff00;fill-opacity:1;stroke:none"
           id="path2854-0-6"
           d="m 1099.6786,274.92878 c 44.5996,49.80149 107.6917,-133.07629 146.4905,-72.26347 32.0125,50.17614 -141.2752,57.9826 -100.8491,113.84014 19.973,27.59712 69.4836,-36.78918 83.8435,-5.98896 15.7667,33.818 -71.1924,27.04707 -63.2923,63.74092 13.0746,60.7291 185.4355,-56.36076 193.8796,13.81942 8.1734,67.93121 -187.3333,-22.3193 -188.6809,32.80408 -0.7997,32.70792 81.731,14.74501 74.9482,48.39121 -7.4473,36.9428 -73.2236,-22.82797 -91.6365,9.99337 -56.7372,101.13474 178.9922,74.76597 141.8786,142.577 -44.6058,81.50019 -107.8417,-128.40725 -191.1412,-87.98031 -56.7424,27.53837 90.1596,55.68923 41.89,97.23766 -40.1987,34.60144 -37.8222,-110.70327 -95.6756,-52.10329 -24.1315,24.4429 60.3853,60.89437 26.9179,72.41961 -36.7466,12.65445 -27.9716,-70.57988 -67.3861,-71.1127 -93.60046,-1.26522 37.0437,183.61765 -24.04628,187.88616 -73.16994,5.11263 29.16188,-178.43819 -50.27087,-188.18748 -34.59638,-4.24626 -16.22198,179.29426 -49.29301,169.87568 -36.31126,-10.34133 41.7563,-157.79424 5.22422,-170.29653 -33.27209,-11.38665 -47.79484,70.64156 -77.75613,53.00878 -32.89685,-19.36049 40.73192,-56.68852 11.33611,-80.88999 -26.77262,-22.04186 -52.44497,47.17213 -74.59134,20.95185 -24.31619,-28.78936 71.92986,-51.46345 50.16677,-81.57385 -45.9022,-63.50835 -162.61353,105.66197 -189.03367,45.666 -29.15905,-66.21569 169.207,-22.16508 155.47647,-101.96631 -5.61332,-32.62443 -79.52851,20.06211 -82.20579,-13.43002 -2.93965,-36.77475 77.03265,9.7562 80.89352,-27.7216 3.51639,-34.13349 -78.24451,-17.12862 -69.59219,-49.39988 9.50004,-35.43325 87.49797,23.76988 99.28657,-10.4364 10.73663,-31.15396 -89.12641,-47.13049 -71.96663,-77.09249 18.84111,-32.89758 82.21515,49.69004 106.74271,21.07133 22.33888,-26.06496 -132.26284,-86.20881 -82.47651,-127.05035 51.70728,-42.41739 72.44996,131.11397 109.56436,84.7921 21.25424,-26.52705 -30.96431,-60.51011 1.26031,-72.41959 35.38194,-13.07638 26.65144,73.56065 63.49949,65.64189 78.75769,-16.92528 -57.81443,-127.06686 0.77729,-140.19095 95.1527,-21.31344 6.43959,85.53762 62.2542,117.58244 51.6908,29.6772 42.6696,-148.41107 76.9524,-140.17935 61.8495,14.85085 -99.6369,140.58016 -10.5388,163.17977 44.8976,49.21437 79.5134,-110.57086 117.6252,-86.71855 20.8101,39.19312 -99.4283,88.52053 -70.475,132.52266 z" />
        <path
           inkscape:connector-curvature="0"
           style="fill:#00ff00;fill-opacity:1;stroke:none"
           id="path2859-3-1"
           d="m 878.01753,768.29258 a 16.589201,15.853708 0 1 1 0,31.7074 16.589201,15.853708 0 1 1 0,-31.7074 z" />
        <path
           inkscape:connector-curvature="0"
           style="fill:#00ff00;fill-opacity:1;stroke:none"
           d="m 851.47484,119.87617 a 16.589201,15.853708 0 1 1 0,31.70739 16.589201,15.853708 0 1 1 0,-31.70739 z"
           id="path2857-6-5" />
        <path
           inkscape:connector-curvature="0"
           style="fill:#00ff00;fill-opacity:1;stroke:none"
           id="path2861-1-5"
           d="m 684.02941,325.96276 c 0,0 -138.40408,-12.33087 -122.80305,-49.68918 15.23211,-36.4749 122.80305,49.68918 122.80305,49.68918 z" />
        <path
           inkscape:connector-curvature="0"
           style="fill:#00ff00;fill-opacity:1;stroke:none"
           d="m 991.60529,126.34533 c 0,0 -23.35833,-130.95233 18.43891,-126.22009 40.809,4.6204 -18.43891,126.22009 -18.43891,126.22009 z"
           id="path2864-0-4" />
        <path
           inkscape:connector-curvature="0"
           style="fill:#00ff00;fill-opacity:1;stroke:none"
           id="path2866-6-7"
           d="m 1111.0433,678.44745 c 0,0 88.7426,102.24675 50.0692,118.12053 -37.7589,15.4985 -50.0692,-118.12053 -50.0692,-118.12053 z" />
      </g>
      <g
         id="g4501"
         transform="matrix(1.2499999,0,0,1.2499999,-399.99988,600.0001)">
        <path
           inkscape:connector-curvature="0"
           style="fill:#0000ff;fill-opacity:1;stroke:none"
           id="path2854"
           d="m 1325.0713,539.67848 c -49.8015,44.59969 133.0762,107.69169 72.2634,146.4905 -50.1761,32.01249 -57.9826,-141.2752 -113.8401,-100.84903 -27.5971,19.97297 36.7892,69.48362 5.989,83.84343 -33.818,15.76673 -27.0471,-71.19232 -63.741,-63.29228 -60.7291,13.07462 56.3608,185.43549 -13.8194,193.87959 -67.9312,8.17343 22.3193,-187.33322 -32.8041,-188.68086 -32.7079,-0.79966 -14.745,81.73094 -48.3912,74.94819 -36.9428,-7.44731 22.828,-73.22358 -9.9933,-91.63651 -101.1349,-56.73723 -74.7661,178.99216 -142.57712,141.8786 -81.50019,-44.60576 128.40732,-107.84171 87.98042,-191.14115 -27.5385,-56.74239 -55.6893,90.15952 -97.23777,41.88995 -34.60144,-40.19871 110.70337,-37.82222 52.10327,-95.67559 -24.44288,-24.13141 -60.89435,60.38528 -72.41959,26.91791 -12.65445,-36.74649 70.57989,-27.9716 71.11269,-67.38599 1.2652,-93.60051 -183.61764,37.04361 -187.88615,-24.04632 -5.11263,-73.16994 178.43815,29.16187 188.18745,-50.27088 4.2463,-34.59638 -179.29423,-16.22198 -169.87565,-49.293 10.34133,-36.31127 157.79425,41.7563 170.29655,5.22421 11.3866,-33.27209 -70.64158,-47.79484 -53.0088,-77.75613 19.36049,-32.89685 56.6885,40.73192 80.8901,11.33611 22.0418,-26.77262 -47.1722,-52.44497 -20.952,-74.59134 28.7895,-24.31619 51.4636,71.92986 81.574,50.16677 63.5083,-45.9022 -105.6621,-162.61353 -45.666,-189.03367 66.2157,-29.15905 22.165,169.207 101.9663,155.47647 32.6244,-5.61332 -20.0621,-79.52851 13.43,-82.20579 36.7747,-2.93965 -9.7562,77.03265 27.7216,80.89352 34.1335,3.51639 17.1286,-78.24451 49.3999,-69.59219 35.4332,9.50004 -23.7699,87.49797 10.4364,99.28657 31.1539,10.73663 47.1305,-89.12641 77.0925,-71.96663 32.8975,18.84111 -49.6901,82.21515 -21.0714,106.74271 26.065,22.33888 86.2088,-132.26284 127.0504,-82.47651 42.4174,51.70728 -131.114,72.44996 -84.7921,109.56436 26.527,21.25425 60.5101,-30.96431 72.4196,1.26031 13.0763,35.38195 -73.5607,26.65145 -65.6419,63.4995 16.9253,78.75768 127.0668,-57.81444 140.1909,0.77728 21.3135,95.15275 -85.5376,6.4396 -117.5824,62.2542 -29.6772,51.69079 148.4111,42.66965 140.1793,76.95238 -14.8508,61.84948 -140.5801,-99.63687 -163.1797,-10.53882 -49.2144,44.89762 110.5708,79.51342 86.7185,117.62513 -39.1931,20.81014 -88.5205,-99.42829 -132.5226,-70.475 z" />
        <path
           inkscape:connector-curvature="0"
           style="fill:#0000ff;fill-opacity:1;stroke:none"
           id="path2859"
           d="m 831.70739,318.01752 a 15.853708,16.589201 0 1 1 -31.7074,0 15.853708,16.589201 0 1 1 31.7074,0 z" />
        <path
           inkscape:connector-curvature="0"
           style="fill:#0000ff;fill-opacity:1;stroke:none"
           d="m 1480.1239,291.47483 a 15.853708,16.589201 0 1 1 -31.7074,0 15.853708,16.589201 0 1 1 31.7074,0 z"
           id="path2857" />
        <path
           inkscape:connector-curvature="0"
           style="fill:#0000ff;fill-opacity:1;stroke:none"
           id="path2861"
           d="m 1274.0373,124.0294 c 0,0 12.3309,-138.40408 49.6892,-122.80305 36.4749,15.23211 -49.6892,122.80305 -49.6892,122.80305 z" />
        <path
           inkscape:connector-curvature="0"
           style="fill:#0000ff;fill-opacity:1;stroke:none"
           d="m 1473.6547,431.60528 c 0,0 130.9523,-23.35833 126.2201,18.43889 -4.6204,40.809 -126.2201,-18.43889 -126.2201,-18.43889 z"
           id="path2864" />
        <path
           inkscape:connector-curvature="0"
           style="fill:#0000ff;fill-opacity:1;stroke:none"
           id="path2866"
           d="m 921.55252,551.04321 c 0,0 -102.24675,88.74261 -118.12053,50.06923 -15.4985,-37.7589 118.12053,-50.06923 118.12053,-50.06923 z" />
      </g>
      <g
         id="g4473"
         transform="matrix(1.2499998,0,0,1.2499998,-399.99998,-1.424993e-6)">
        <path
           inkscape:connector-curvature="0"
           style="fill:#ff0000;fill-opacity:1;stroke:none"
           id="path2854-0"
           d="m 580.32155,525.07122 c -44.59969,-49.80148 -107.69169,133.07629 -146.4905,72.26347 -32.01249,-50.17614 141.2752,-57.9826 100.84903,-113.84013 -19.97297,-27.59712 -69.48362,36.78917 -83.84343,5.98896 -15.76673,-33.818 71.19232,-27.04707 63.29228,-63.74092 -13.07462,-60.7291 -185.43549,56.36076 -193.87959,-13.81942 -8.17343,-67.93121 187.33322,22.3193 188.68086,-32.80408 0.79966,-32.70792 -81.73094,-14.74501 -74.94819,-48.39121 7.44731,-36.94281 73.22358,22.82797 91.63651,-9.99337 56.73723,-101.13475 -178.99216,-74.76598 -141.8786,-142.57701 44.60576,-81.50019 107.84171,128.40726 191.14115,87.98031 56.7424,-27.53837 -90.15952,-55.68923 -41.88995,-97.23766 40.19871,-34.60144 37.82222,110.70327 95.6756,52.10329 24.13141,-24.4429 -60.38529,-60.89437 -26.91792,-72.41961 36.7465,-12.65445 27.9716,70.57988 67.38599,71.1127 93.60051,1.26522 -37.04361,-183.61765 24.04633,-187.88616 73.16994,-5.11263 -29.16188,178.43819 50.27087,188.18748 34.59638,4.24626 16.22198,-179.29426 49.29301,-169.87568 36.31126,10.34133 -41.7563,157.79424 -5.22422,170.29653 33.27209,11.38665 47.79484,-70.64156 77.75613,-53.00878 32.89685,19.36049 -40.73192,56.68852 -11.33611,80.88999 26.77262,22.04186 52.44497,-47.17213 74.59134,-20.95185 24.31619,28.78936 -71.92986,51.46345 -50.16677,81.57386 45.9022,63.50835 162.61353,-105.66198 189.03373,-45.66601 29.1591,66.2157 -169.20706,22.16508 -155.47653,101.96632 5.61332,32.62443 79.52851,-20.06211 82.20579,13.43002 2.93965,36.77475 -77.03265,-9.7562 -80.89352,27.7216 -3.51639,34.1335 78.24451,17.12862 69.59219,49.39988 -9.50004,35.43325 -87.49797,-23.76988 -99.28657,10.4364 -10.73663,31.15396 89.12641,47.13048 71.96663,77.09248 -18.84111,32.89758 -82.21515,-49.69003 -106.74271,-21.07133 -22.33888,26.06496 132.26284,86.20881 82.47651,127.05035 -51.70728,42.41739 -72.44996,-131.11397 -109.56436,-84.7921 -21.25424,26.52705 30.96431,60.51011 -1.26031,72.41959 -35.38194,13.07638 -26.65144,-73.56065 -63.49949,-65.64189 -78.75768,16.92528 57.81443,127.06686 -0.77729,140.19095 -95.15274,21.31344 -6.43959,-85.53762 -62.2542,-117.58244 -51.69079,-29.6772 -42.66965,148.41107 -76.95238,140.17935 -61.84948,-14.85085 99.63688,-140.58016 10.53882,-163.17977 -44.89762,-49.21437 -79.51342,110.57086 -117.62513,86.71855 -20.81014,-39.19312 99.42829,-88.52053 70.475,-132.52266 z" />
        <path
           inkscape:connector-curvature="0"
           style="fill:#ff0000;fill-opacity:1;stroke:none"
           id="path2859-3"
           d="m 801.98251,31.70742 a 16.589201,15.853708 0 1 1 0,-31.7074 16.589201,15.853708 0 1 1 0,31.7074 z" />
        <path
           inkscape:connector-curvature="0"
           style="fill:#ff0000;fill-opacity:1;stroke:none"
           d="m 828.5252,680.12383 a 16.589201,15.853708 0 1 1 0,-31.70739 16.589201,15.853708 0 1 1 0,31.70739 z"
           id="path2857-6" />
        <path
           inkscape:connector-curvature="0"
           style="fill:#ff0000;fill-opacity:1;stroke:none"
           id="path2861-1"
           d="m 995.97063,474.03726 c 0,0 138.40417,12.33086 122.80317,49.68916 -15.2322,36.4749 -122.80317,-49.68916 -122.80317,-49.68916 z" />
        <path
           inkscape:connector-curvature="0"
           style="fill:#ff0000;fill-opacity:1;stroke:none"
           d="m 688.39475,673.65467 c 0,0 23.35833,130.95233 -18.43889,126.22009 -40.809,-4.6204 18.43889,-126.22009 18.43889,-126.22009 z"
           id="path2864-0" />
        <path
           inkscape:connector-curvature="0"
           style="fill:#ff0000;fill-opacity:1;stroke:none"
           id="path2866-6"
           d="m 568.95682,121.55255 c 0,0 -88.74261,-102.24675 -50.06923,-118.12053 37.7589,-15.4985 50.06923,118.12053 50.06923,118.12053 z" />
      </g>
      <g
         id="g4666"
         transform="translate(1159.6705,-850.00003)">
        <path
           d="m -732.69792,1256.169 q 23.76809,-10.6107 58.99578,-2.971 35.65215,7.6398 50.93164,26.3147 11.88405,14.8551 16.97721,29.7101 5.51759,14.8551 8.91304,43.7163 3.81987,28.4369 9.76189,100.59 2.97102,39.0476 6.79089,73.8509 4.2443,34.8033 6.36645,41.1697 5.09317,13.5818 -14.0062,20.7971 -20.79708,7.2153 -30.98341,-3.3954 -9.76189,-10.1864 -14.0062,-44.1408 0,-1.2733 -0.42443,-2.971 -1.69772,-13.5818 -2.54658,-19.0994 -0.84886,-5.942 -2.97101,-13.5817 -1.69772,-8.0642 -2.54658,-10.1864 -0.42443,-2.5465 -3.81988,-5.5176 -2.97101,-3.3954 -4.66873,-2.971 -1.69772,0 -7.21532,0.4245 -5.51759,0.4244 -9.33746,2.1221 -3.81987,1.2733 -12.73291,4.2443 -1.27329,0.4244 -2.12215,0.8489 -23.34364,8.0641 -31.83225,16.1283 -8.06417,8.0642 -13.58177,28.0124 -9.76189,29.2857 -26.7391,45.4141 -16.55279,16.1283 -38.19873,15.2795 -27.16353,0 -36.501,-19.0994 -8.91304,-19.0994 -4.2443,-65.7867 5.09316,-53.0538 21.64594,-110.7763 16.97721,-57.7225 38.19872,-98.8922 21.64595,-41.5942 39.89645,-49.234 z m 73.85084,74.2753 q -4.66873,-9.7619 -11.88404,-16.5527 -7.21532,-6.7909 -12.30848,-6.7909 -6.36646,0 -14.0062,20.3726 -7.21529,19.9482 -11.4596,47.1118 -4.2443,26.7391 -1.69772,44.9896 1.69772,17.4016 6.36643,20.7971 5.09317,3.3954 25.04139,1.6977 30.13455,-3.3955 36.07658,-7.6398 7.21531,-4.6687 1.27329,-43.7163 -5.94203,-39.0475 -17.40165,-60.2691 z m 63.24012,234.71 q 0,-3.8199 -2.12215,-5.9421 -2.12215,-2.5465 -5.94203,-2.5465 -3.39544,0 -5.94202,2.5465 -2.54658,2.1222 -2.54658,5.9421 0,2.971 2.54658,5.5176 2.54658,2.5465 5.94202,2.5465 3.39544,0 5.5176,-2.5465 2.54658,-2.5466 2.54658,-5.5176 z"
           style="font-style:normal;font-variant:normal;font-weight:500;font-stretch:normal;font-size:118.75px;line-height:125%;font-family:'Academy Killer';-inkscape-font-specification:'Academy Killer Medium';letter-spacing:0px;word-spacing:0px;fill:#151515;fill-opacity:1;stroke:none;stroke-width:1px;stroke-linecap:butt;stroke-linejoin:miter;stroke-opacity:1"
           id="path4722"
           inkscape:connector-curvature="0" />
        <path
           d="m -476.9045,1281.2563 q 13.58179,-7.2153 59.84467,-2.971 46.68734,4.2443 68.33328,15.7039 39.47202,20.3727 44.56518,68.3333 5.09316,47.9606 -25.46582,115.445 -11.45961,24.617 -24.19252,38.6232 -12.73291,13.5817 -34.37886,24.1925 -21.64594,10.6108 -62.81566,22.9192 -29.71014,9.3375 -42.01862,9.7619 -12.30848,0.4245 -26.31468,-7.2153 -9.33746,-4.2443 -17.40164,-14.0062 -7.63974,-10.1863 -10.18632,-19.9482 -4.66874,-22.9192 -7.63975,-31.8323 -3.39544,-11.884 11.45962,-63.2401 15.27949,-51.7805 35.65214,-101.0144 20.37266,-49.2339 30.55898,-54.7515 z m 9.76192,36.9255 q 9.33746,-10.1864 3.39544,-12.3085 -0.42443,-0.4245 -1.69772,-0.4245 -7.21533,0 -13.58179,8.9131 -6.36645,8.4886 -2.12215,12.7329 1.27329,0.8488 2.97101,0.4244 2.12215,-0.8488 5.09317,-3.3954 3.39544,-2.5466 5.94204,-5.942 z m 87.43262,32.2567 q -19.52379,-19.5238 -26.73911,-19.5238 -8.91304,-0.4245 -17.40164,22.9192 -5.51759,16.1283 -19.09935,67.4844 -23.34366,90.4036 -8.91303,106.532 10.61076,11.884 46.26288,-8.4886 19.09936,-10.1863 28.0124,-21.646 9.33747,-11.884 16.12835,-33.9544 10.61076,-35.2277 5.94203,-64.5134 -4.66874,-29.2857 -24.19253,-48.8094 z"
           style="font-style:normal;font-variant:normal;font-weight:500;font-stretch:normal;font-size:118.75px;line-height:125%;font-family:'Academy Killer';-inkscape-font-specification:'Academy Killer Medium';letter-spacing:0px;word-spacing:0px;fill:#151515;fill-opacity:1;stroke:none;stroke-width:1px;stroke-linecap:butt;stroke-linejoin:miter;stroke-opacity:1"
           id="path4724"
           inkscape:connector-curvature="0" />
        <path
           d="m -218.79807,1284.8863 q 46.2629,-21.6459 79.36846,-20.3726 33.52999,0.8488 62.815683,25.4658 22.494788,18.6749 29.285672,40.3209 6.790885,21.6459 -3.819872,40.7453 -10.610757,19.0993 -36.076557,30.559 l -31.832276,14.0062 28.436834,28.4368 q 18.674933,18.6749 32.681114,40.7453 14.0062,21.6459 19.948224,40.7453 6.366454,19.0993 4.668733,33.9544 -1.697721,14.8551 -12.308478,20.7971 -18.250503,9.3375 -25.89023,2.1221 -7.639745,-7.2153 -7.639745,-33.5299 0,-35.2278 -31.407842,-76.3975 -25.89025,-34.3789 -49.65834,-41.5942 -15.27949,-4.6687 -22.91924,7.2153 -4.2443,7.2154 -5.51759,60.6936 0,51.7805 -13.58177,66.6355 -10.61076,12.3085 -30.98341,14.0062 -19.94823,1.6978 -39.04759,-8.0641 -11.45962,-6.3665 -13.15734,-23.3437 -1.27329,-16.9772 2.54658,-95.0724 2.54658,-43.2919 6.36646,-81.4906 4.2443,-38.6231 6.79088,-47.5362 2.97101,-8.4886 16.97721,-18.6749 14.0062,-10.6108 33.95443,-20.3727 z m 121.387059,55.6004 q -2.122151,-23.3437 -11.459619,-30.9834 -9.33746,-8.0642 -22.4948,1.6977 -13.15734,9.3375 -25.89025,33.53 -19.52379,38.1987 -9.7619,48.3851 9.7619,10.1863 47.11176,-9.3375 16.55279,-8.0642 20.372658,-15.7039 4.244303,-7.6398 2.122151,-27.588 z m -141.335289,-5.5176 q 2.54658,-5.942 3.39545,-10.6108 1.27329,-4.6687 0.84886,-7.2153 -0.42443,-2.971 -2.54659,-2.971 -5.94202,0 -12.7329,16.9772 -6.79089,16.9772 -2.54659,21.2215 2.12216,1.2733 5.94203,-3.8198 3.81987,-5.0932 7.63974,-13.5818 z m 7.63975,105.6831 q 1.69772,-4.6687 1.27329,-9.3374 -0.42443,-4.6688 -2.12215,-6.7909 -2.97101,-3.3954 -4.24431,2.971 -0.42443,3.3954 0,8.0642 0,9.3374 2.54659,8.4886 1.27329,0 2.54658,-3.3955 z"
           style="font-style:normal;font-variant:normal;font-weight:500;font-stretch:normal;font-size:118.75px;line-height:125%;font-family:'Academy Killer';-inkscape-font-specification:'Academy Killer Medium';letter-spacing:0px;word-spacing:0px;fill:#151515;fill-opacity:1;stroke:none;stroke-width:1px;stroke-linecap:butt;stroke-linejoin:miter;stroke-opacity:1"
           id="path4726"
           inkscape:connector-curvature="0" />
        <path
           d="m 27.867622,1261.1964 q 2.546582,-6.7908 12.308478,-8.913 9.761897,-2.1222 31.832272,-0.8489 25.465817,1.6978 32.681128,5.5176 7.63975,3.3955 9.7619,15.2795 1.69772,12.7329 -8.06417,24.1926 -9.761901,11.4596 -24.192531,14.855 -14.43063,3.3955 -29.28569,-1.6977 -17.826072,-8.0642 -24.616957,-20.7971 -6.366454,-12.7329 -0.42443,-27.588 z m -36.0765747,142.1842 q 5.9420241,-21.2215 11.0351875,-29.2857 5.5175938,-8.0642 14.8550602,-8.0642 16.552781,0 36.501005,21.2215 19.948223,21.2215 19.948223,38.6232 0,4.6687 0.424431,17.4016 0.84886,12.7329 1.273291,31.4079 0.84886,18.6749 0.84886,32.6811 0.848861,22.4948 1.273291,35.6521 0.42443,13.1574 -0.42443,24.617 -0.848861,11.4596 -2.546582,16.5528 -1.697721,5.5176 -5.517594,9.3374 -3.395442,3.8199 -8.064175,4.6688 -4.244303,0.8488 -11.884048,0.8488 -17.401642,0 -32.256702,-18.2505 -14.8550604,-18.2505 -22.4948056,-46.6873 -7.6397454,-28.4368 -9.7618964,-62.8157 -1.697721,-34.8033 6.7908843,-67.9088 z m 40.7453077,46.6873 q 0,-7.6397 -2.122151,-12.3085 -2.122152,-5.0931 -5.942024,-5.0931 -3.395443,0 -5.942024,3.3954 -2.546582,3.3954 -2.546582,8.4886 0,4.6687 2.546582,10.1863 2.546581,5.0932 5.942024,7.2153 3.819872,1.6978 5.942024,-1.6977 2.122151,-3.3954 2.122151,-10.1863 z"
           style="font-style:normal;font-variant:normal;font-weight:500;font-stretch:normal;font-size:118.75px;line-height:125%;font-family:'Academy Killer';-inkscape-font-specification:'Academy Killer Medium';letter-spacing:0px;word-spacing:0px;fill:#151515;fill-opacity:1;stroke:none;stroke-width:1px;stroke-linecap:butt;stroke-linejoin:miter;stroke-opacity:1"
           id="path4728"
           inkscape:connector-curvature="0" />
      </g>
      <g
         id="g4214"
         transform="matrix(1,0,0,1.0000043,-2.6233238e-7,-0.0043945)">
        <path
           d="m 147.90244,875.23494 35.63675,-15.59997 43.65499,23.62275 q 34.30037,18.27427 43.20955,36.10275 9.35465,17.3828 1.33639,49.47411 -3.56368,14.26272 -11.58195,19.61131 -7.57281,5.34859 -12.47286,-1.33715 -4.90005,-7.13141 -2.22729,-21.83992 2.67275,-13.37136 -0.44546,-22.73128 -2.67276,-9.36003 -12.47287,-18.27427 -13.80924,-12.03422 -19.60018,-11.58853 -5.34552,0 -23.16389,13.37146 -28.06394,20.05699 -40.98226,53.48545 -12.47286,32.98265 -13.36378,86.02245 0,40.5599 3.11822,53.9312 3.11821,12.9257 13.80924,18.72 23.16388,12.4799 50.78236,8.4684 28.06392,-4.4571 47.66412,-23.1769 10.24557,-9.3601 18.26383,-14.7085 8.46374,-5.7943 10.69103,-3.5658 4.45459,4.0114 -5.34551,17.3828 -9.80011,13.3714 -28.06394,28.0799 -17.81837,14.2628 -34.74581,22.2856 -78.40084,38.777 -145.219736,-9.36 l -36.527661,-27.1885 1.781836,-53.9311 q 1.781836,-56.1597 10.245558,-84.2396 8.90919,-32.09131 41.42772,-70.42257 32.963993,-38.33126 64.591603,-52.59409 z"
           style="font-style:normal;font-variant:normal;font-weight:500;font-stretch:normal;font-size:118.75px;line-height:125%;font-family:'Academy Killer';-inkscape-font-specification:'Academy Killer Medium';letter-spacing:0px;word-spacing:0px;fill:#ffffff;fill-opacity:1;stroke:#000000;stroke-width:4.99997997;stroke-linecap:butt;stroke-linejoin:miter;stroke-miterlimit:4;stroke-dasharray:none;stroke-opacity:1"
           id="path4730"
           inkscape:connector-curvature="0" />
        <path
           d="m 401.53066,883.46712 q 24.05481,-11.14286 40.5368,-14.26283 16.92746,-3.11998 35.19129,0.44568 24.50026,4.45712 45.88231,23.62275 21.38204,18.71995 23.16389,37.4399 0.44546,1.33714 1.78183,15.15419 1.78184,13.81714 2.67276,21.39424 0.89091,10.69707 -5.34551,40.55975 -6.23644,29.8627 -15.59108,60.1712 -7.57281,24.0684 -12.0274,36.1027 -4.00914,12.0343 -8.90919,22.7313 -4.45459,10.6971 -9.8001,16.0457 -4.90006,5.3486 -10.69103,9.3599 -5.79098,4.0114 -16.03653,9.36 -14.2547,7.1313 -36.08222,12.9256 -21.8275,5.7943 -38.30949,7.1314 -27.17302,1.7829 -37.41858,-2.6743 -10.24557,-4.4571 -28.06394,-26.2969 -46.32777,-56.6055 -27.17302,-154.66219 9.35465,-44.57131 30.29123,-69.53121 20.93659,-25.40557 65.92798,-45.01688 z m 95.32829,35.21128 q -35.63674,-13.81715 -54.79149,11.58854 -18.70929,25.40557 -18.70929,86.91386 0,32.9827 4.00913,47.6912 4.00913,14.2629 17.81838,29.417 l 21.8275,24.5143 16.482,-20.0571 q 17.37291,-20.5028 26.2821,-61.5084 8.90919,-41.4512 5.34551,-77.10817 -3.11822,-35.65696 -18.26384,-41.45123 z"
           style="font-style:normal;font-variant:normal;font-weight:500;font-stretch:normal;font-size:118.75px;line-height:125%;font-family:'Academy Killer';-inkscape-font-specification:'Academy Killer Medium';letter-spacing:0px;word-spacing:0px;fill:#ffffff;fill-opacity:1;stroke:#000000;stroke-width:4.99997997;stroke-linecap:butt;stroke-linejoin:miter;stroke-miterlimit:4;stroke-dasharray:none;stroke-opacity:1"
           id="path4732"
           inkscape:connector-curvature="0" />
        <path
           d="m 622.81257,876.57976 q 22.27296,-11.14286 31.62761,-9.80571 9.35465,0.89146 26.72757,17.3828 17.81837,16.49134 19.15474,36.54843 1.33638,19.61131 -12.91832,54.37692 -11.58194,27.6342 -12.91832,86.4681 -0.89092,58.8341 9.35465,69.0854 3.56367,3.5658 12.0274,1.783 8.46373,-2.2286 18.70929,-8.4686 11.13649,-7.5771 26.72757,-10.6971 16.03653,-3.12 27.61847,0 11.58194,2.6742 12.0274,9.8056 0,3.12 -4.90005,8.4686 -4.45459,4.9028 -10.69103,8.9142 -14.2547,7.1315 -40.09133,24.5143 -26.2821,17.3827 -68.15528,18.2741 -41.42772,0.8915 -59.69153,-15.5999 -20.49113,-18.7199 -25.83665,-50.3655 -4.90005,-31.6455 1.33638,-102.5138 4.4546,-49.47411 9.80011,-75.32537 5.79097,-26.29704 14.70016,-40.55987 9.35465,-14.26283 25.39116,-22.2856 z"
           style="font-style:normal;font-variant:normal;font-weight:500;font-stretch:normal;font-size:118.75px;line-height:125%;font-family:'Academy Killer';-inkscape-font-specification:'Academy Killer Medium';letter-spacing:0px;word-spacing:0px;fill:#ffffff;fill-opacity:1;stroke:#000000;stroke-width:4.99997997;stroke-linecap:butt;stroke-linejoin:miter;stroke-miterlimit:4;stroke-dasharray:none;stroke-opacity:1"
           id="path4734"
           inkscape:connector-curvature="0" />
        <path
           d="m 901.33074,883.46712 q 24.0548,-11.14286 40.53682,-14.26283 16.9274,-3.11998 35.1914,0.44568 24.50034,4.45712 45.88244,23.62275 21.3819,18.71995 23.1638,37.4399 0.4455,1.33714 1.7819,15.15419 1.7818,13.81714 2.6727,21.39424 0.8909,10.69707 -5.3455,40.55975 -6.2364,29.8627 -15.5911,60.1712 -7.5728,24.0684 -12.0274,36.1027 -4.0092,12.0343 -8.9092,22.7313 -4.4546,10.6971 -9.80012,16.0457 -4.90001,5.3486 -10.69099,9.3599 -5.79098,4.0114 -16.03655,9.36 -14.25483,7.1313 -36.08238,12.9256 -21.82751,5.7943 -38.30951,7.1314 -27.17307,1.7829 -37.41844,-2.6743 -10.24561,-4.4571 -28.06398,-26.2969 -46.32777,-56.6055 -27.17302,-154.66219 9.35465,-44.57131 30.29123,-69.53121 20.9366,-25.40557 65.9279,-45.01688 z m 95.3285,35.21128 q -35.63672,-13.81715 -54.79168,11.58854 -18.70932,25.40557 -18.70932,86.91386 0,32.9827 4.00913,47.6912 4.00914,14.2629 17.81839,29.417 l 21.82763,24.5143 16.48208,-20.0571 q 17.37283,-20.5028 26.28213,-61.5084 8.9092,-41.4512 5.3454,-77.10817 -3.1182,-35.65696 -18.26376,-41.45123 z"
           style="font-style:normal;font-variant:normal;font-weight:500;font-stretch:normal;font-size:118.75px;line-height:125%;font-family:'Academy Killer';-inkscape-font-specification:'Academy Killer Medium';letter-spacing:0px;word-spacing:0px;fill:#ffffff;fill-opacity:1;stroke:#000000;stroke-width:4.99997997;stroke-linecap:butt;stroke-linejoin:miter;stroke-miterlimit:4;stroke-dasharray:none;stroke-opacity:1"
           id="path4736"
           inkscape:connector-curvature="0" />
        <path
           d="m 1139.5003,877.81378 q 48.5551,-22.73129 83.3008,-21.39414 35.1913,0.89136 65.928,26.74273 23.6094,19.6113 30.7367,42.34269 7.1274,22.73129 -4.0091,42.78838 -11.1364,20.05699 -37.864,32.09136 l -33.4095,14.7085 29.8458,29.8627 q 19.6003,19.6113 34.3004,42.7883 14.7002,22.7313 20.9366,42.7884 6.6818,20.057 4.9,35.657 -1.7818,15.6 -12.9183,21.8399 -19.1548,9.8057 -27.173,2.2285 -8.0183,-7.5771 -8.0183,-35.2112 0,-36.9942 -32.964,-80.2282 -27.173,-36.1028 -52.1187,-43.6799 -16.0365,-4.9028 -24.0548,7.5771 -4.4546,7.5772 -5.791,63.7369 0,54.377 -14.2547,69.9768 -11.1365,12.9257 -32.5185,14.7085 -20.9366,1.783 -40.9822,-8.4684 -12.0275,-6.6857 -13.8093,-24.5142 -1.3364,-17.8285 2.6727,-99.8396 2.6728,-45.4627 6.682,-85.57678 4.4546,-40.55976 7.1272,-49.91979 3.1183,-8.91424 17.8185,-19.61131 14.7002,-11.14285 35.6367,-21.39424 z m 127.4013,58.38835 q -2.2272,-24.51421 -12.0274,-32.53699 -9.8,-8.46856 -23.6093,1.78283 -13.8092,9.80571 -27.173,35.21128 -20.4911,40.11409 -10.2455,50.81126 10.2455,10.69709 49.4459,-9.8057 17.3729,-8.46857 21.3821,-16.49134 4.4546,-8.02288 2.2272,-28.97134 z m -148.3378,-5.79426 q 2.6726,-6.23995 3.5636,-11.14286 1.3364,-4.9028 0.8909,-7.57709 -0.4455,-3.11998 -2.6727,-3.11998 -6.2364,0 -13.3638,17.82848 -7.1274,17.82849 -2.6728,22.28561 2.2273,1.33714 6.2364,-4.01134 4.0092,-5.34858 8.0184,-14.26282 z m 8.0182,110.98233 q 1.7818,-4.9028 1.3364,-9.8056 -0.4455,-4.9029 -2.2274,-7.1314 -3.1182,-3.5657 -4.4546,3.12 -0.4454,3.5656 0,8.4685 0,9.8056 2.6728,8.9143 1.3364,0 2.6728,-3.5658 z"
           style="font-style:normal;font-variant:normal;font-weight:500;font-stretch:normal;font-size:118.75px;line-height:125%;font-family:'Academy Killer';-inkscape-font-specification:'Academy Killer Medium';letter-spacing:0px;word-spacing:0px;fill:#ffffff;fill-opacity:1;stroke:#000000;stroke-width:4.99997997;stroke-linecap:butt;stroke-linejoin:miter;stroke-miterlimit:4;stroke-dasharray:none;stroke-opacity:1"
           id="path4738"
           inkscape:connector-curvature="0" />
        <path
           d="m 1406.2571,863.19779 q 14.7002,-10.69707 42.7641,-10.69707 28.5094,0 54.7915,8.02277 26.7275,7.5771 46.3277,21.83993 20.0457,14.26282 20.0457,29.86269 0,12.48001 -7.5728,19.16563 -7.1273,6.24006 -17.3729,4.01144 -9.8001,-2.67429 -16.9274,-13.81704 -11.582,-18.27427 -28.5095,-18.27427 -16.4819,0 -25.3911,17.38281 -11.1365,21.39424 -1.7818,46.35413 9.3546,24.9599 41.8731,59.72539 28.0639,29.8627 34.7459,57.9426 6.6818,27.6342 -7.5728,49.9198 -13.8093,21.8399 -48.5551,37.8856 -34.3004,16.0456 -85.9737,22.7312 -40.0913,5.7943 -51.6733,-4.0113 -7.1273,-6.2401 7.1274,-15.1543 8.9092,-5.3485 16.482,-6.6856 8.0182,-1.7829 32.0731,-3.12 12.4728,-1.3371 16.0365,-7.5771 3.5636,-6.24 3.5636,-27.1885 0,-32.9827 -21.382,-63.7368 -20.4911,-29.8627 -34.7458,-64.1827 -13.8092,-34.31978 -13.8092,-54.82255 0,-20.94846 13.8092,-46.35404 13.8092,-25.85136 31.6276,-39.22272 z"
           style="font-style:normal;font-variant:normal;font-weight:500;font-stretch:normal;font-size:118.75px;line-height:125%;font-family:'Academy Killer';-inkscape-font-specification:'Academy Killer Medium';letter-spacing:0px;word-spacing:0px;fill:#ffffff;fill-opacity:1;stroke:#000000;stroke-width:4.99997997;stroke-linecap:butt;stroke-linejoin:miter;stroke-miterlimit:4;stroke-dasharray:none;stroke-opacity:1"
           id="path4740"
           inkscape:connector-curvature="0" />
      </g>
    </g>
  </g>
</svg>
